<svg height="512" viewBox="0 0 64 64" width="512" xmlns="http://www.w3.org/2000/svg"><path d="m61 5v9h-58v-9a2.006 2.006 0 0 1 2-2h54a2.006 2.006 0 0 1 2 2zm-37 5v-3h-3v3zm-7 0v-3h-3v3zm-7 0v-3h-3v3z" fill="#ffff"/><path d="m41.5 43h-19a6.5 6.5 0 0 0 0 13h19a6.5 6.5 0 0 0 0-13z" fill="#ffff"/><path d="m43 24-2 11h-2.28a1.979 1.979 0 0 0 -3.44 0h-6.56a1.979 1.979 0 0 0 -3.44 0h-2.28l-2-11z" fill="#ffff"/><path d="m38.76 35.05a2.028 2.028 0 0 1 .24.95 2 2 0 0 1 -4 0 2 2 0 0 1 3.76-.95z" fill="#78b9eb"/><path d="m28.76 35.05a2.028 2.028 0 0 1 .24.95 2 2 0 0 1 -4 0 2 2 0 0 1 3.76-.95z" fill="#78b9eb"/><g fill="#ff4d4d"><path d="m41.5 42h-19a7.5 7.5 0 0 0 0 15h19a7.5 7.5 0 0 0 0-15zm0 13h-19a5.5 5.5 0 0 1 0-11h19a5.5 5.5 0 0 1 0 11z"/><path d="m25.5 46h-2.5a1 1 0 0 0 -1 1v6h2v-2h1.5a2.5 2.5 0 0 0 0-5zm0 3h-1.5v-1h1.5a.5.5 0 0 1 0 1z"/><path d="m32 46a3 3 0 0 0 -3 3v4h2v-2h2v2h2v-4a3 3 0 0 0 -3-3zm-1 3a1 1 0 0 1 2 0z"/><path d="m41.555 46.168a1 1 0 0 0 -1.387.277l-1.168 1.755-1.168-1.752a1 1 0 0 0 -1.664 1.11l1.832 2.742v2.7h2v-2.7l1.832-2.748a1 1 0 0 0 -.277-1.387z"/><path d="m20.035 24.282 1.982 10.9a1 1 0 0 0 .983.818h1a3 3 0 0 0 6 0h4a3 3 0 0 0 6 0h1a1 1 0 0 0 .983-.821l2-11a1 1 0 0 0 -.983-1.179h-21.323l-1.748-4.372a1 1 0 0 0 -.929-.628h-5v2h4.323zm6.965 12.718a1 1 0 1 1 1-1 1 1 0 0 1 -1 1zm10 0a1 1 0 1 1 1-1 1 1 0 0 1 -1 1zm4.8-12-1.637 9h-.943a2.964 2.964 0 0 0 -4.44 0h-5.56a2.964 2.964 0 0 0 -4.44 0h-.945l-1.635-9z"/><path d="m59 2h-54a3 3 0 0 0 -3 3v54a3 3 0 0 0 3 3h54a3 3 0 0 0 3-3v-54a3 3 0 0 0 -3-3zm-54 2h54a1 1 0 0 1 1 1v8h-56v-8a1 1 0 0 1 1-1zm54 56h-54a1 1 0 0 1 -1-1v-44h56v44a1 1 0 0 1 -1 1z"/><path d="m14 11h3a1 1 0 0 0 1-1v-3a1 1 0 0 0 -1-1h-3a1 1 0 0 0 -1 1v3a1 1 0 0 0 1 1zm1-3h1v1h-1z"/><path d="m7 11h3a1 1 0 0 0 1-1v-3a1 1 0 0 0 -1-1h-3a1 1 0 0 0 -1 1v3a1 1 0 0 0 1 1zm1-3h1v1h-1z"/><path d="m21 11h3a1 1 0 0 0 1-1v-3a1 1 0 0 0 -1-1h-3a1 1 0 0 0 -1 1v3a1 1 0 0 0 1 1zm1-3h1v1h-1z"/></g></svg>